PathFileType	3	(X/Y/Z)	feet_movements_1__view1_aligned.trc
DataRate	CameraRate	NumFrames	NumMarkers	Units	OrigDataRate	OrigDataStartFrame	OrigNumFrames
100.0	100.0	12	19	mm	100.0	631	1840
Frame#	Time	pelvis			neck			head			hip_left			hip_right			knee_left			knee_right			ankle_left			ankle_right			heel_left			heel_right			toe_left			toe_right			shoulder_left			shoulder_right			elbow_left			elbow_right			wrist_left			wrist_right			
		X1	Y1	Z1	X2	Y2	Z2	X3	Y3	Z3	X4	Y4	Z4	X5	Y5	Z5	X6	Y6	Z6	X7	Y7	Z7	X8	Y8	Z8	X9	Y9	Z9	X10	Y10	Z10	X11	Y11	Z11	X12	Y12	Z12	X13	Y13	Z13	X14	Y14	Z14	X15	Y15	Z15	X16	Y16	Z16	X17	Y17	Z17	X18	Y18	Z18	X19	Y19	Z19	
631	6.30000	75.615551	955.948441	425.150292	80.561088	1403.178643	718.440724	125.387484	1564.692179	681.870526	7.122814	984.277389	391.396567	144.107909	927.619508	458.904337	34.868855	1139.234757	-19.037990	259.803097	547.174922	270.670505	18.831286	1157.711468	-428.500905	130.280539	171.584596	378.204930	17.116129	1119.512700	-472.415586	101.027202	133.280491	415.517477	39.980838	1341.624280	-519.644350	192.403114	77.368000	216.956866	-98.761238	1381.669119	655.218410	239.100968	1327.119491	793.631079	-231.284650	1193.183838	469.520285	364.518348	1113.915241	639.798207	-290.012119	1070.705393	237.279181	456.449017	1125.065735	391.835105
632	6.31000	76.293989	955.952126	424.335367	81.915349	1403.485255	716.318636	126.527615	1564.960678	678.963215	7.822912	984.251477	390.634949	144.764723	927.652788	458.036074	34.427426	1138.214376	-20.185027	260.605211	547.588612	269.328627	16.289372	1155.254188	-429.452869	131.934299	171.698204	376.653300	14.199825	1116.876815	-473.085920	102.843531	133.291477	413.989384	37.415081	1338.237431	-521.913954	193.929346	77.781365	215.163402	-97.519969	1381.742721	653.464385	240.579515	1327.429028	791.518751	-230.292363	1192.955044	468.264679	365.760139	1114.139911	637.561470	-288.914170	1070.574327	236.025521	457.973166	1124.741290	389.785024
633	6.32000	76.972426	955.955810	423.520443	83.269609	1403.791867	714.196548	127.667746	1565.229176	676.055905	8.523011	984.225564	389.873332	145.421537	927.686068	457.167811	33.985996	1137.193995	-21.332064	261.407324	548.002302	267.986748	13.747458	1152.796907	-430.404832	133.588059	171.811812	375.101670	11.283520	1114.240929	-473.756254	104.659859	133.302464	412.461291	34.849324	1334.850582	-524.183558	195.455577	78.194731	213.369939	-96.278700	1381.816323	651.710361	242.058062	1327.738565	789.406422	-229.300076	1192.726251	467.009073	367.001931	1114.364582	635.324734	-287.816222	1070.443261	234.771861	459.497315	1124.416845	387.734942
634	6.33000	77.650863	955.959494	422.705519	84.623870	1404.098480	712.074460	128.807878	1565.497675	673.148594	9.223110	984.199651	389.111714	146.078350	927.719348	456.299548	33.544567	1136.173615	-22.479100	262.209437	548.415993	266.644870	11.205544	1150.339627	-431.356796	135.241819	171.925420	373.550040	8.367216	1111.605044	-474.426588	106.476188	133.313450	410.933198	32.283567	1331.463733	-526.453162	196.981808	78.608096	211.576475	-95.037431	1381.889925	649.956336	243.536609	1328.048101	787.294094	-228.307789	1192.497457	465.753467	368.243723	1114.589253	633.087997	-286.718273	1070.312196	233.518201	461.021463	1124.092399	385.684861
635	6.34000	78.329300	955.963179	421.890595	85.978130	1404.405092	709.952371	129.948009	1565.766173	670.241284	9.923208	984.173739	388.350096	146.735164	927.752628	455.431286	33.103137	1135.153234	-23.626137	263.011551	548.829683	265.302991	8.663631	1147.882346	-432.308760	136.895579	172.039028	371.998409	5.450912	1108.969158	-475.096922	108.292516	133.324436	409.405104	29.717810	1328.076885	-528.722766	198.508040	79.021461	209.783011	-93.796162	1381.963526	648.202311	245.015157	1328.357638	785.181765	-227.315503	1192.268663	464.497861	369.485515	1114.813924	630.851261	-285.620324	1070.181130	232.264542	462.545612	1123.767954	383.634780
636	6.35000	79.007737	955.966863	421.075670	87.332391	1404.711704	707.830283	131.088140	1566.034672	667.333973	10.623307	984.147826	387.588479	147.391978	927.785909	454.563023	32.661708	1134.132854	-24.773173	263.813664	549.243373	263.961113	6.121717	1145.425066	-433.260724	138.549339	172.152636	370.446779	2.534607	1106.333273	-475.767256	110.108845	133.335422	407.877011	27.152053	1324.690036	-530.992370	200.034271	79.434827	207.989548	-92.554893	1382.037128	646.448287	246.493704	1328.667175	783.069437	-226.323216	1192.039870	463.242255	370.727306	1115.038594	628.614524	-284.522376	1070.050064	231.010882	464.069761	1123.443509	381.584698
637	6.36000	79.686175	955.970548	420.260746	88.686651	1405.018316	705.708195	132.228271	1566.303170	664.426662	11.323405	984.121913	386.826861	148.048792	927.819189	453.694760	32.220278	1133.112473	-25.920210	264.615778	549.657064	262.619235	3.579803	1142.967785	-434.212687	140.203099	172.266244	368.895149	-0.381697	1103.697387	-476.437590	111.925174	133.346408	406.348918	24.586297	1321.303187	-533.261974	201.560502	79.848192	206.196084	-91.313624	1382.110730	644.694262	247.972251	1328.976712	780.957109	-225.330929	1191.811076	461.986649	371.969098	1115.263265	626.377788	-283.424427	1069.918998	229.757222	465.593910	1123.119064	379.534617
638	6.37000	80.364612	955.974232	419.445822	90.040912	1405.324928	703.586107	133.368402	1566.571669	661.519352	12.023504	984.096001	386.065243	148.705605	927.852469	452.826497	31.778849	1132.092092	-27.067246	265.417891	550.070754	261.277356	1.037889	1140.510505	-435.164651	141.856860	172.379852	367.343519	-3.298001	1101.061502	-477.107924	113.741502	133.357394	404.820825	22.020540	1317.916338	-535.531578	203.086734	80.261557	204.402620	-90.072355	1382.184332	642.940237	249.450798	1329.286248	778.844780	-224.338642	1191.582282	460.731043	373.210890	1115.487936	624.141052	-282.326478	1069.787932	228.503562	467.118058	1122.794618	377.484535
639	6.38000	81.043049	955.977917	418.630898	91.395172	1405.631540	701.464019	134.508533	1566.840167	658.612041	12.723603	984.070088	385.303625	149.362419	927.885749	451.958234	31.337419	1131.071712	-28.214283	266.220005	550.484444	259.935478	-1.504024	1138.053224	-436.116615	143.510620	172.493460	365.791889	-6.214305	1098.425617	-477.778258	115.557831	133.368380	403.292732	19.454783	1314.529489	-537.801183	204.612965	80.674923	202.609156	-88.831085	1382.257934	641.186212	250.929345	1329.595785	776.732452	-223.346355	1191.353489	459.475437	374.452681	1115.712607	621.904315	-281.228530	1069.656866	227.249902	468.642207	1122.470173	375.434454
640	6.39000	81.721486	955.981601	417.815974	92.749433	1405.938152	699.341931	135.648664	1567.108666	655.704731	13.423701	984.044175	384.542008	150.019233	927.919029	451.089971	30.895990	1130.051331	-29.361320	267.022118	550.898135	258.593600	-4.045938	1135.595944	-437.068578	145.164380	172.607068	364.240259	-9.130610	1095.789731	-478.448592	117.374159	133.379366	401.764638	16.889026	1311.142640	-540.070787	206.139196	81.088288	200.815693	-87.589816	1382.331536	639.432188	252.407892	1329.905322	774.620123	-222.354068	1191.124695	458.219832	375.694473	1115.937277	619.667579	-280.130581	1069.525801	225.996242	470.166356	1122.145728	373.384373
641	6.40000	82.399923	955.985286	417.001049	94.103693	1406.244765	697.219843	136.788795	1567.377164	652.797420	14.123800	984.018263	383.780390	150.676047	927.952309	450.221709	30.454561	1129.030951	-30.508356	267.824232	551.311825	257.251721	-6.587852	1133.138664	-438.020542	146.818140	172.720676	362.688629	-12.046914	1093.153846	-479.118926	119.190488	133.390352	400.236545	14.323269	1307.755792	-542.340391	207.665428	81.501653	199.022229	-86.348547	1382.405137	637.678163	253.886440	1330.214859	772.507795	-221.361781	1190.895901	456.964226	376.936265	1116.161948	617.430842	-279.032632	1069.394735	224.742583	471.690505	1121.821282	371.334291
642	6.41000	83.335864	955.988872	416.036357	95.577204	1406.753568	694.917791	138.044771	1567.663979	649.497201	15.061678	983.937209	382.895575	151.610085	928.040534	449.177105	30.163975	1127.514372	-31.758621	268.876757	551.807490	255.853552	-8.693430	1130.007499	-438.945523	148.887633	172.908697	360.693950	-14.421544	1089.773315	-479.669456	121.411843	133.456678	398.220980	11.974725	1303.546507	-544.913087	209.782672	82.053390	196.795237	-84.987243	1382.661447	635.781149	255.518142	1330.872551	770.211052	-220.194650	1190.764856	455.615061	378.511254	1116.744306	615.036008	-277.522061	1069.198956	223.329911	473.600105	1121.016795	369.066190
